<?xml version="1.0" encoding="UTF-8"?>
<svg version="1.1" xmlns="http://www.w3.org/2000/svg" width="128" height="128">
<path d="M0 0 C2.48445626 2.23973466 2.9539508 3.59049105 3.328125 6.91796875 C3.30234375 7.99691406 3.2765625 9.07585938 3.25 10.1875 C3.20939453 11.90453125 3.20939453 11.90453125 3.16796875 13.65625 C2.60909091 24.78181818 2.60909091 24.78181818 1 28 C1.928125 28.268125 2.85625 28.53625 3.8125 28.8125 C6.95945105 29.98489353 8.00587027 30.43651281 10 33 C10.96728516 35.83154297 10.96728516 35.83154297 11.7890625 39.2421875 C12.09070313 40.47324219 12.39234375 41.70429687 12.703125 42.97265625 C13.01056799 44.27340174 13.31785823 45.57418335 13.625 46.875 C14.09292969 48.79505859 14.09292969 48.79505859 14.5703125 50.75390625 C15.79877517 55.82131478 17.00991243 60.87996936 18 66 C13.22216214 69.78931969 9.05442269 70.62828915 3 70 C-0.4375 68.8125 -0.4375 68.8125 -3 67 C-4.0625 64.8125 -4.0625 64.8125 -4 62 C-3.35668049 60.20547716 -2.69985956 58.41454339 -1.97265625 56.65234375 C-0.66040339 53.07395141 0.30283924 49.43948779 1.25 45.75 C1.43715576 45.05221436 1.62431152 44.35442871 1.81713867 43.63549805 C3.11568789 38.75876927 3.11568789 38.75876927 2 34 C1.34 33.67 0.68 33.34 0 33 C-0.0825 34.051875 -0.165 35.10375 -0.25 36.1875 C-2.54906962 53.30951851 -11.16246681 63.12405932 -24 74 C-24.62519531 74.55042969 -25.25039062 75.10085937 -25.89453125 75.66796875 C-29.73056723 79 -29.73056723 79 -32 79 C-35.03969596 87.22847633 -33.15617034 92.96807492 -30.1640625 100.77734375 C-29 104 -29 104 -29 107 C-28.07102905 106.9685791 -28.07102905 106.9685791 -27.12329102 106.93652344 C-24.26986458 106.8524818 -21.41669964 106.80106555 -18.5625 106.75 C-17.58861328 106.71648437 -16.61472656 106.68296875 -15.61132812 106.6484375 C-7.42440445 106.53891344 -1.7718044 108.48546373 5 113 C4.875 114.75 4.875 114.75 4 117 C-3.85955213 123.51767737 -12.67647034 123.28485809 -22.375 123.1953125 C-23.5400708 123.1924826 -24.7051416 123.18965271 -25.90551758 123.18673706 C-29.60378562 123.17559807 -33.30180592 123.15050479 -37 123.125 C-39.51692357 123.1149621 -42.03385096 123.10583766 -44.55078125 123.09765625 C-50.70060447 123.0756793 -56.85028453 123.04226444 -63 123 C-63 124.65 -63 126.3 -63 128 C-64.32 128 -65.64 128 -67 128 C-67.66 126.35 -68.32 124.7 -69 123 C-70.155 123.0825 -71.31 123.165 -72.5 123.25 C-77.24614634 123.25 -81.20999097 121.88254208 -85 119 C-85.69911908 117.68339272 -86.36984398 116.3509721 -87 115 C-87.83192871 115.0314209 -87.83192871 115.0314209 -88.68066406 115.06347656 C-91.20359023 115.14683548 -93.72622649 115.19871868 -96.25 115.25 C-97.12269531 115.28351563 -97.99539062 115.31703125 -98.89453125 115.3515625 C-105.25806418 115.44871567 -105.25806418 115.44871567 -108.609375 113.421875 C-110.57643121 109.99610295 -110.48749257 107.91223029 -110 104 C-109.10161804 101.2949585 -107.89144089 98.83026585 -106.5625 96.3125 C-106.20269043 95.61914551 -105.84288086 94.92579102 -105.47216797 94.21142578 C-98.29603621 80.76584903 -90.79569384 72.35049693 -76 67.625 C-70.39837398 66 -70.39837398 66 -68 66 C-68 64.35 -68 62.7 -68 61 C-68.556875 60.7525 -69.11375 60.505 -69.6875 60.25 C-72.39971127 58.78393985 -74.63587365 56.97010529 -77 55 C-76.505 59.455 -76.505 59.455 -76 64 C-80.75 63.25 -80.75 63.25 -83 61 C-83.72729051 54.93924575 -81.96053215 51.08841463 -79 46 C-79.61875 45.731875 -80.2375 45.46375 -80.875 45.1875 C-83 44 -83 44 -85 41 C-84.625 37.3125 -84.625 37.3125 -84 34 C-82.02 33.505 -82.02 33.505 -80 33 C-80.515625 31.824375 -81.03125 30.64875 -81.5625 29.4375 C-83.66087187 23.75191147 -82.69033308 19.28134805 -80.5 13.75 C-78.74460462 10.44347342 -77.22226549 9.31730591 -73.6875 8.125 C-72.13043272 7.72804568 -70.56698353 7.3558003 -69 7 C-67.91589844 6.63261719 -66.83179688 6.26523438 -65.71484375 5.88671875 C-61.42549685 4.86286833 -58.18375017 5.06440097 -53.875 5.6875 C-53.18535156 5.76677734 -52.49570312 5.84605469 -51.78515625 5.92773438 C-47.5491316 6.49064778 -44.38608195 7.36364945 -41 10 C-37.19147751 15.4345106 -36.12009315 21.50125942 -37 28 C-38 31.0625 -38 31.0625 -39 33 C-37.68 33.66 -36.36 34.32 -35 35 C-34.62474227 41.37938144 -34.62474227 41.37938144 -36.625 44.6875 C-37.07875 45.450625 -37.5325 46.21375 -38 47 C-37.20882096 48.99983534 -37.20882096 48.99983534 -36 51 C-35.875 54.25 -35.875 54.25 -36 57 C-31.76915097 55.31192092 -31.76915097 55.31192092 -29 52 C-30.485 51.505 -30.485 51.505 -32 51 C-30.88971227 45.20145461 -29.42043333 39.49570824 -27.98876953 33.76977539 C-27.49905974 31.80873473 -27.01312957 29.8467815 -26.52734375 27.88476562 C-26.21925781 26.65048828 -25.91117187 25.41621094 -25.59375 24.14453125 C-25.31208984 23.01378174 -25.03042969 21.88303223 -24.74023438 20.71801758 C-24 18 -24 18 -23 16 C-17.71862571 16.51525603 -14.42778844 18.25477117 -10 21 C-9.67 19.02 -9.34 17.04 -9 15 C-9.61875 14.896875 -10.2375 14.79375 -10.875 14.6875 C-13 14 -13 14 -15 11 C-15.40713754 7.26790586 -15.48317209 4.89731959 -13.6875 1.5625 C-9.46387776 -0.89309433 -4.75514188 -0.98732717 0 0 Z M-17 24 C-16.01 28.29 -15.02 32.58 -14 37 C-11.81024227 33.71536341 -11.00193437 30.79303725 -10 27 C-13.25397508 24.74114676 -13.25397508 24.74114676 -17 24 Z M-22 31 C-22.50435694 32.9363704 -23.00333874 34.87414146 -23.5 36.8125 C-23.7784375 37.89144531 -24.056875 38.97039063 -24.34375 40.08203125 C-25.10970948 42.98933975 -25.10970948 42.98933975 -25 46 C-22.69 46 -20.38 46 -18 46 C-16.76077777 42.28233332 -17.42981058 40.56110463 -18.4375 36.8125 C-18.86869141 35.18248047 -18.86869141 35.18248047 -19.30859375 33.51953125 C-19.53675781 32.68808594 -19.76492187 31.85664063 -20 31 C-20.66 31 -21.32 31 -22 31 Z M6 46 C5.01 50.95 4.02 55.9 3 61 C5.64 61 8.28 61 11 61 C10.68917128 59.24970238 10.37626821 57.49977306 10.0625 55.75 C9.88847656 54.77546875 9.71445313 53.8009375 9.53515625 52.796875 C9.09620271 50.50278205 8.59651408 48.25708029 8 46 C7.34 46 6.68 46 6 46 Z " fill="#B46C59" transform="translate(110,0)"/>
<path d="M0 0 C2.48445626 2.23973466 2.9539508 3.59049105 3.328125 6.91796875 C3.30234375 7.99691406 3.2765625 9.07585938 3.25 10.1875 C3.20939453 11.90453125 3.20939453 11.90453125 3.16796875 13.65625 C2.60909091 24.78181818 2.60909091 24.78181818 1 28 C1.928125 28.268125 2.85625 28.53625 3.8125 28.8125 C6.95945105 29.98489353 8.00587027 30.43651281 10 33 C10.96728516 35.83154297 10.96728516 35.83154297 11.7890625 39.2421875 C12.09070313 40.47324219 12.39234375 41.70429687 12.703125 42.97265625 C13.01056799 44.27340174 13.31785823 45.57418335 13.625 46.875 C14.09292969 48.79505859 14.09292969 48.79505859 14.5703125 50.75390625 C15.79877517 55.82131478 17.00991243 60.87996936 18 66 C13.22216214 69.78931969 9.05442269 70.62828915 3 70 C-0.4375 68.8125 -0.4375 68.8125 -3 67 C-4.0625 64.8125 -4.0625 64.8125 -4 62 C-3.35668049 60.20547716 -2.69985956 58.41454339 -1.97265625 56.65234375 C-0.66040339 53.07395141 0.30283924 49.43948779 1.25 45.75 C1.43715576 45.05221436 1.62431152 44.35442871 1.81713867 43.63549805 C3.11568789 38.75876927 3.11568789 38.75876927 2 34 C1.34 33.67 0.68 33.34 0 33 C-0.0825 34.051875 -0.165 35.10375 -0.25 36.1875 C-2.54906962 53.30951851 -11.16246681 63.12405932 -24 74 C-24.62519531 74.55042969 -25.25039062 75.10085937 -25.89453125 75.66796875 C-29.73056723 79 -29.73056723 79 -32 79 C-35.03969596 87.22847633 -33.15617034 92.96807492 -30.1640625 100.77734375 C-29 104 -29 104 -29 107 C-28.07102905 106.9685791 -28.07102905 106.9685791 -27.12329102 106.93652344 C-24.26986458 106.8524818 -21.41669964 106.80106555 -18.5625 106.75 C-17.58861328 106.71648437 -16.61472656 106.68296875 -15.61132812 106.6484375 C-7.42440445 106.53891344 -1.7718044 108.48546373 5 113 C5 113.66 5 114.32 5 115 C4.43152344 115.12117188 3.86304687 115.24234375 3.27734375 115.3671875 C2.50519531 115.53476563 1.73304687 115.70234375 0.9375 115.875 C0.18339844 116.03742188 -0.57070312 116.19984375 -1.34765625 116.3671875 C-4.07017468 116.96711317 -4.07017468 116.96711317 -6.8984375 118.02734375 C-12.26327874 119.55935855 -17.74428438 119.24616395 -23.27734375 119.1953125 C-24.4438295 119.1924826 -25.61031525 119.18965271 -26.81214905 119.18673706 C-30.52070576 119.17558388 -34.22901685 119.15048786 -37.9375 119.125 C-40.45898088 119.11496393 -42.98046555 119.10583918 -45.50195312 119.09765625 C-51.6680519 119.07566044 -57.83400839 119.04223118 -64 119 C-64.02721176 117.10424749 -64.04649136 115.20838021 -64.0625 113.3125 C-64.07410156 112.25675781 -64.08570312 111.20101562 -64.09765625 110.11328125 C-64.00865425 107.27589738 -63.64939838 104.7561081 -63 102 C-64.32 102 -65.64 102 -67 102 C-67 103.65 -67 105.3 -67 107 C-72.94 106.67 -78.88 106.34 -85 106 C-86.43316898 103.13366205 -86.13200361 100.62764499 -86.125 97.4375 C-86.12757812 96.26058594 -86.13015625 95.08367187 -86.1328125 93.87109375 C-86 91 -86 91 -85 90 C-83.44495723 89.98854653 -81.88941133 90.03469971 -80.3359375 90.10546875 C-69.63634505 90.70778756 -69.63634505 90.70778756 -60.125 86.828125 C-56.39097261 80.6603119 -54.74877467 73.32810305 -53.50146484 66.25756836 C-52.86413604 62.96686242 -52.51707981 61.35582102 -49.6953125 59.4140625 C-47 59 -47 59 -44.578125 60.078125 C-41.89974181 61.36029675 -41.89974181 61.36029675 -38.921875 59.734375 C-37.87515625 59.07953125 -36.8284375 58.4246875 -35.75 57.75 C-34.16445312 56.78320312 -34.16445312 56.78320312 -32.546875 55.796875 C-29.92780548 54.2498026 -29.92780548 54.2498026 -29 52 C-29.99 51.67 -30.98 51.34 -32 51 C-30.88971227 45.20145461 -29.42043333 39.49570824 -27.98876953 33.76977539 C-27.49905974 31.80873473 -27.01312957 29.8467815 -26.52734375 27.88476562 C-26.21925781 26.65048828 -25.91117188 25.41621094 -25.59375 24.14453125 C-25.31208984 23.01378174 -25.03042969 21.88303223 -24.74023438 20.71801758 C-24 18 -24 18 -23 16 C-17.71862571 16.51525603 -14.42778844 18.25477117 -10 21 C-9.67 19.02 -9.34 17.04 -9 15 C-9.61875 14.896875 -10.2375 14.79375 -10.875 14.6875 C-13 14 -13 14 -15 11 C-15.40713754 7.26790586 -15.48317209 4.89731959 -13.6875 1.5625 C-9.46387776 -0.89309433 -4.75514188 -0.98732717 0 0 Z M-17 24 C-16.01 28.29 -15.02 32.58 -14 37 C-11.81024227 33.71536341 -11.00193437 30.79303725 -10 27 C-13.25397508 24.74114676 -13.25397508 24.74114676 -17 24 Z M-22 31 C-22.50435694 32.9363704 -23.00333874 34.87414146 -23.5 36.8125 C-23.7784375 37.89144531 -24.056875 38.97039063 -24.34375 40.08203125 C-25.10970948 42.98933975 -25.10970948 42.98933975 -25 46 C-22.69 46 -20.38 46 -18 46 C-16.76077777 42.28233332 -17.42981058 40.56110463 -18.4375 36.8125 C-18.86869141 35.18248047 -18.86869141 35.18248047 -19.30859375 33.51953125 C-19.53675781 32.68808594 -19.76492187 31.85664063 -20 31 C-20.66 31 -21.32 31 -22 31 Z M6 46 C5.01 50.95 4.02 55.9 3 61 C5.64 61 8.28 61 11 61 C10.68917128 59.24970238 10.37626821 57.49977306 10.0625 55.75 C9.88847656 54.77546875 9.71445313 53.8009375 9.53515625 52.796875 C9.09620271 50.50278205 8.59651408 48.25708029 8 46 C7.34 46 6.68 46 6 46 Z " fill="#E1DEE0" transform="translate(110,0)"/>
<path d="M0 0 C2.54272461 0.515625 2.54272461 0.515625 5 2 C6.33032227 4.546875 6.33032227 4.546875 7.31640625 7.75 C7.68830078 8.91660156 8.06019531 10.08320312 8.44335938 11.28515625 C8.81267578 12.51105469 9.18199219 13.73695312 9.5625 15 C10.31098832 17.39671388 11.06225043 19.79256343 11.81640625 22.1875 C12.35998779 23.93160156 12.35998779 23.93160156 12.91455078 25.7109375 C13.88216305 28.6429376 14.96188696 31.46553993 16.15234375 34.3125 C18.0244536 38.81115899 19.07475554 43.21957027 20 48 C20.61931396 47.97905273 21.23862793 47.95810547 21.87670898 47.93652344 C24.73013542 47.8524818 27.58330036 47.80106555 30.4375 47.75 C31.41138672 47.71648437 32.38527344 47.68296875 33.38867188 47.6484375 C41.57559555 47.53891344 47.2281956 49.48546373 54 54 C54 54.66 54 55.32 54 56 C53.43152344 56.12117188 52.86304687 56.24234375 52.27734375 56.3671875 C51.11912109 56.61855469 51.11912109 56.61855469 49.9375 56.875 C49.18339844 57.03742188 48.42929688 57.19984375 47.65234375 57.3671875 C44.92982532 57.96711317 44.92982532 57.96711317 42.1015625 59.02734375 C36.73672126 60.55935855 31.25571562 60.24616395 25.72265625 60.1953125 C24.5561705 60.1924826 23.38968475 60.18965271 22.18785095 60.18673706 C18.47929424 60.17558388 14.77098315 60.15048786 11.0625 60.125 C8.54101912 60.11496393 6.01953445 60.10583918 3.49804688 60.09765625 C-2.6680519 60.07566044 -8.83400839 60.04223118 -15 60 C-15.02721176 58.10424749 -15.04649136 56.20838021 -15.0625 54.3125 C-15.07410156 53.25675781 -15.08570312 52.20101562 -15.09765625 51.11328125 C-15.00865425 48.27589738 -14.64939838 45.7561081 -14 43 C-15.32 43 -16.64 43 -18 43 C-18 44.65 -18 46.3 -18 48 C-23.94 47.67 -29.88 47.34 -36 47 C-37.43316898 44.13366205 -37.13200361 41.62764499 -37.125 38.4375 C-37.12757812 37.26058594 -37.13015625 36.08367187 -37.1328125 34.87109375 C-37 32 -37 32 -36 31 C-34.44495723 30.98854653 -32.88941133 31.03469971 -31.3359375 31.10546875 C-20.63634505 31.70778756 -20.63634505 31.70778756 -11.125 27.828125 C-7.38819597 21.65572548 -5.73756836 14.30318203 -4.32568359 7.25756836 C-3.29580209 2.1972014 -3.29580209 2.1972014 0 0 Z " fill="#A0C7F9" transform="translate(61,59)"/>
<path d="M0 0 C0 0.66 0 1.32 0 2 C0.5775 2.28875 1.155 2.5775 1.75 2.875 C3.14206581 3.57103291 4.52091758 4.29518663 5.875 5.0625 C8.54074552 6.2385642 11.12431827 6.60786158 14 7 C13.45054084 8.5255933 12.88458 10.04524434 12.3125 11.5625 C11.99925781 12.40941406 11.68601563 13.25632812 11.36328125 14.12890625 C10.91339844 15.07636719 10.46351562 16.02382812 10 17 C9.71535889 17.61673584 9.43071777 18.23347168 9.13745117 18.86889648 C7.93247669 21.01256333 6.90682175 22.43481826 5 24 C1.22618784 24.99491751 -2.42676677 24.97976325 -6.3125 24.9375 C-7.33923828 24.95361328 -8.36597656 24.96972656 -9.42382812 24.98632812 C-11.94897705 25.02156276 -14.47464917 25.01489255 -17 25 C-17 29.95 -17 34.9 -17 40 C-15.30230469 39.98259766 -15.30230469 39.98259766 -13.5703125 39.96484375 C-12.08854331 39.95546546 -10.60677235 39.9463653 -9.125 39.9375 C-8.37863281 39.92912109 -7.63226563 39.92074219 -6.86328125 39.91210938 C-1.2265625 39.88671875 -1.2265625 39.88671875 1 41 C1 39.35 1 37.7 1 36 C2.32 36 3.64 36 5 36 C4.67 41.61 4.34 47.22 4 53 C11.38354673 52.93090927 18.76653874 52.84283653 26.1496582 52.73754883 C28.65870994 52.70439668 31.16783452 52.67633486 33.67700195 52.65356445 C37.29409681 52.6198403 40.91053002 52.56751373 44.52734375 52.51171875 C46.19663185 52.50213387 46.19663185 52.50213387 47.89964294 52.49235535 C53.74007643 52.38333584 58.63106173 51.84455319 64.07301331 49.65657043 C67.11570976 48.61985101 69.81574212 48.7967495 73 49 C68.79632097 54.18453747 64.46646488 55.67445992 58 57 C53.80140027 57.36808483 49.64172361 57.35184634 45.4296875 57.29296875 C44.26744659 57.28872391 43.10520569 57.28447906 41.90774536 57.28010559 C38.22991847 57.26343926 34.55265864 57.22580894 30.875 57.1875 C28.36719547 57.17243762 25.85938226 57.15875195 23.3515625 57.14648438 C17.2341846 57.11357526 11.11713283 57.06349716 5 57 C5 58.65 5 60.3 5 62 C3.68 62 2.36 62 1 62 C0.34 60.35 -0.32 58.7 -1 57 C-2.155 57.0825 -3.31 57.165 -4.5 57.25 C-9.24614634 57.25 -13.20999097 55.88254208 -17 53 C-17.69911908 51.68339272 -18.36984398 50.3509721 -19 49 C-19.55461914 49.02094727 -20.10923828 49.04189453 -20.68066406 49.06347656 C-23.20359023 49.14683548 -25.72622649 49.19871868 -28.25 49.25 C-29.55904297 49.30027344 -29.55904297 49.30027344 -30.89453125 49.3515625 C-37.25806418 49.44871567 -37.25806418 49.44871567 -40.609375 47.421875 C-42.57643121 43.99610295 -42.48749257 41.91223029 -42 38 C-41.10161804 35.2949585 -39.89144089 32.83026585 -38.5625 30.3125 C-38.20269043 29.61914551 -37.84288086 28.92579102 -37.47216797 28.21142578 C-30.29603621 14.76584903 -22.79569384 6.35049693 -8 1.625 C-2.39837398 0 -2.39837398 0 0 0 Z " fill="#EAAD9C" transform="translate(42,66)"/>
<path d="M0 0 C1.703125 1.25 1.703125 1.25 3 3 C3.29296875 5.69921875 3.29296875 5.69921875 3.1875 8.6875 C3.14689453 10.17830078 3.14689453 10.17830078 3.10546875 11.69921875 C3.07066406 12.45847656 3.03585938 13.21773437 3 14 C0.525 13.01 0.525 13.01 -2 12 C-1.95359375 12.79664063 -1.9071875 13.59328125 -1.859375 14.4140625 C-1.56541421 23.04391127 -1.56541421 23.04391127 -3.5625 27.4375 C-7.55336888 31.63302882 -10.69186055 34.6760506 -16.5625 35.5 C-23.01949414 34.56080085 -26.64611049 31.72708004 -31 27 C-31.33 26.67 -31.66 26.34 -32 26 C-35.12291933 6.91549296 -35.12291933 6.91549296 -31 1 C-21.1176619 -4.12417531 -10.10331872 -4.95981101 0 0 Z " fill="#E9AD9D" transform="translate(65,28)"/>
<path d="M0 0 C7.83445621 2.3147257 7.83445621 2.3147257 10 5 C10 8.30800279 9.69737942 10.80673633 9 14 C8.7834375 15.0209375 8.566875 16.041875 8.34375 17.09375 C4.94945525 30.29378512 -3.87908581 38.42557524 -14 47 C-14.93779297 47.82564453 -14.93779297 47.82564453 -15.89453125 48.66796875 C-19.73056723 52 -19.73056723 52 -22 52 C-22.66 54.97 -23.32 57.94 -24 61 C-24.66 61 -25.32 61 -26 61 C-28.64 52.42 -31.28 43.84 -34 35 C-29.545 32.525 -29.545 32.525 -25 30 C-21.31756654 28.13647726 -21.31756654 28.13647726 -19 25 C-19.99 24.67 -20.98 24.34 -22 24 C-21.67 22.35 -21.34 20.7 -21 19 C-18.56288386 18.80515062 -16.12562602 18.61884822 -13.6875 18.4375 C-12.65206055 18.35338867 -12.65206055 18.35338867 -11.59570312 18.26757812 C-8.37487726 18.03418495 -6.09672655 17.96775782 -3 19 C-3.2475 17.72125 -3.495 16.4425 -3.75 15.125 C-4.43453233 9.3840555 -2.47606308 5.09027561 0 0 Z " fill="#D09180" transform="translate(100,27)"/>
<path d="M0 0 C7.27639615 -0.09074989 14.55247759 -0.16397248 21.82932186 -0.20724869 C25.2091028 -0.22803026 28.58847297 -0.25617154 31.96801758 -0.30175781 C35.8629015 -0.35050659 39.75720944 -0.37302285 43.65234375 -0.390625 C44.8526976 -0.41127014 46.05305145 -0.43191528 47.28977966 -0.45318604 C55.95970977 -0.45548274 61.81953752 1.21302501 69 6 C69 6.66 69 7.32 69 8 C68.43152344 8.12117188 67.86304687 8.24234375 67.27734375 8.3671875 C66.50519531 8.53476563 65.73304687 8.70234375 64.9375 8.875 C64.18339844 9.03742188 63.42929688 9.19984375 62.65234375 9.3671875 C59.92982532 9.96711317 59.92982532 9.96711317 57.1015625 11.02734375 C51.73672126 12.55935855 46.25571562 12.24616395 40.72265625 12.1953125 C39.5561705 12.1924826 38.38968475 12.18965271 37.18785095 12.18673706 C33.47929424 12.17558388 29.77098315 12.15048786 26.0625 12.125 C23.54101912 12.11496393 21.01953445 12.10583918 18.49804688 12.09765625 C12.33193728 12.0756604 6.16601022 12.04116373 0 12 C0 8.04 0 4.08 0 0 Z " fill="#F8F6F7" transform="translate(46,107)"/>
<path d="M0 0 C1.32 0 2.64 0 4 0 C3.67 5.61 3.34 11.22 3 17 C10.38354673 16.93090927 17.76653874 16.84283653 25.1496582 16.73754883 C27.65870994 16.70439668 30.16783452 16.67633486 32.67700195 16.65356445 C36.29409681 16.6198403 39.91053002 16.56751373 43.52734375 16.51171875 C45.19663185 16.50213387 45.19663185 16.50213387 46.89964294 16.49235535 C52.74007643 16.38333584 57.63106173 15.84455319 63.07301331 13.65657043 C66.11570976 12.61985101 68.81574212 12.7967495 72 13 C67.79632097 18.18453747 63.46646488 19.67445992 57 21 C52.80140027 21.36808483 48.64172361 21.35184634 44.4296875 21.29296875 C43.26744659 21.28872391 42.10520569 21.28447906 40.90774536 21.28010559 C37.22991847 21.26343926 33.55265864 21.22580894 29.875 21.1875 C27.36719547 21.17243762 24.85938226 21.15875195 22.3515625 21.14648438 C16.2341846 21.11357526 10.11713283 21.06349716 4 21 C4 22.65 4 24.3 4 26 C2.68 26 1.36 26 0 26 C-0.66 24.35 -1.32 22.7 -2 21 C-3.155 21.0825 -4.31 21.165 -5.5 21.25 C-10.24614634 21.25 -14.20999097 19.88254208 -18 17 C-18.69911908 15.68339272 -19.36984398 14.3509721 -20 13 C-20.83192871 13.0314209 -20.83192871 13.0314209 -21.68066406 13.06347656 C-24.20359023 13.14683548 -26.72622649 13.19871868 -29.25 13.25 C-30.55904297 13.30027344 -30.55904297 13.30027344 -31.89453125 13.3515625 C-38.37816748 13.45054931 -38.37816748 13.45054931 -41.609375 11.109375 C-43 9 -43 9 -43 7 C-39.16559363 7.05230376 -35.3333665 7.14747973 -31.5 7.25 C-30.42234375 7.26417969 -29.3446875 7.27835937 -28.234375 7.29296875 C-21.33255266 7.50339016 -16.97837963 8.57601894 -11 12 C-7.66423653 12.33802605 -7.66423653 12.33802605 -5 12 C-4.34 9.69 -3.68 7.38 -3 5 C-2.01 5 -1.02 5 0 5 C0 3.35 0 1.7 0 0 Z " fill="#D0917F" transform="translate(43,102)"/>
<path d="M0 0 C1.703125 1.25 1.703125 1.25 3 3 C3.29296875 5.69921875 3.29296875 5.69921875 3.1875 8.6875 C3.14689453 10.17830078 3.14689453 10.17830078 3.10546875 11.69921875 C3.07066406 12.45847656 3.03585938 13.21773437 3 14 C2.46270264 13.78778809 1.92540527 13.57557617 1.37182617 13.35693359 C-4.4472114 11.21687173 -9.51304629 10.53587396 -15.6875 10.625 C-16.50283203 10.61339844 -17.31816406 10.60179687 -18.15820312 10.58984375 C-23.20865936 10.61434071 -26.57869474 11.32412554 -31 14 C-31.66 14.33 -32.32 14.66 -33 15 C-33.4093473 4.56164384 -33.4093473 4.56164384 -31 1 C-21.1176619 -4.12417531 -10.10331872 -4.95981101 0 0 Z " fill="#A0C7F9" transform="translate(65,28)"/>
<path d="M0 0 C2.625 1 2.625 1 5 3 C5.59656196 7.02679323 5.49461821 9.18197758 3.375 12.6875 C2.92125 13.450625 2.4675 14.21375 2 15 C2.73195434 16.9664052 2.73195434 16.9664052 4 19 C4.38749213 21.32495277 4.72982839 23.65851268 5 26 C0.67985656 28.99765055 0.67985656 28.99765055 -2 30 C-5.8125 29.1875 -5.8125 29.1875 -9 28 C-9.66 28.33 -10.32 28.66 -11 29 C-11.91485573 31.80478195 -11.91485573 31.80478195 -12.625 35.0625 C-12.88539062 36.16722656 -13.14578125 37.27195313 -13.4140625 38.41015625 C-13.60742188 39.26480469 -13.80078125 40.11945313 -14 41 C-19.24555023 41.24799879 -22.10854615 40.43697898 -26.4296875 37.578125 C-28 36 -28 36 -28.5 32.1875 C-28.2525 30.6096875 -28.2525 30.6096875 -28 29 C-27.01 29.33 -26.02 29.66 -25 30 C-20.17910572 30.66169137 -17.55272069 30.03998657 -13.6875 27.25 C-9.83443296 24.25232898 -8.25453603 21.85379068 -7.5859375 16.984375 C-7.51632813 15.91703125 -7.44671875 14.8496875 -7.375 13.75 C-7.30023438 12.67234375 -7.22546875 11.5946875 -7.1484375 10.484375 C-7.09945312 9.66453125 -7.05046875 8.8446875 -7 8 C-5.68 8.33 -4.36 8.66 -3 9 C-2.87625 7.700625 -2.7525 6.40125 -2.625 5.0625 C-2.4140625 2.84765625 -2.4140625 2.84765625 -2 1 C-1.34 0.67 -0.68 0.34 0 0 Z " fill="#CF9282" transform="translate(70,32)"/>
<path d="M0 0 C2.875 -0.125 2.875 -0.125 6 0 C8 2 8 2 8.3046875 5.63671875 C8.1889058 10.13290818 6.90839352 13.72728461 5.125 17.8125 C4.85558594 18.46669922 4.58617188 19.12089844 4.30859375 19.79492188 C3.0726369 22.74614566 1.78003751 25.32994373 0 28 C-1.97119141 28.34057617 -1.97119141 28.34057617 -4.3515625 28.29296875 C-5.20234375 28.28330078 -6.053125 28.27363281 -6.9296875 28.26367188 C-7.81914063 28.23853516 -8.70859375 28.21339844 -9.625 28.1875 C-10.5221875 28.17396484 -11.419375 28.16042969 -12.34375 28.14648438 C-14.56309789 28.11106925 -16.78125188 28.06168461 -19 28 C-18.62053223 27.56937256 -18.24106445 27.13874512 -17.85009766 26.69506836 C-10.7768912 18.57205382 -4.44214239 9.8499679 0 0 Z " fill="#F8F6F7" transform="translate(56,73)"/>
<path d="M0 0 C0.87454834 0.00523682 1.74909668 0.01047363 2.65014648 0.01586914 C3.59438477 0.0190918 4.53862305 0.02231445 5.51147461 0.02563477 C6.50469727 0.03401367 7.49791992 0.04239258 8.52124023 0.05102539 C9.51833008 0.05553711 10.51541992 0.06004883 11.54272461 0.06469727 C14.01478872 0.07652532 16.48673541 0.0930069 18.95874023 0.11352539 C16.50612068 3.96764183 14.2314905 6.84077513 10.95874023 10.11352539 C16.56874023 10.44352539 22.17874023 10.77352539 27.95874023 11.11352539 C25.95874023 16.11352539 25.95874023 16.11352539 24.95874023 17.11352539 C23.29256908 17.15416371 21.62485929 17.15624639 19.95874023 17.11352539 C19.95874023 15.46352539 19.95874023 13.81352539 19.95874023 12.11352539 C18.63874023 12.11352539 17.31874023 12.11352539 15.95874023 12.11352539 C15.95874023 13.76352539 15.95874023 15.41352539 15.95874023 17.11352539 C10.01874023 16.78352539 4.07874023 16.45352539 -2.04125977 16.11352539 C-3.47442874 13.24718744 -3.17326338 10.74117038 -3.16625977 7.55102539 C-3.16883789 6.37411133 -3.17141602 5.19719727 -3.17407227 3.98461914 C-2.99746127 0.16670488 -2.99746127 0.16670488 0 0 Z " fill="#BFD7FA" transform="translate(27.041259765625,89.886474609375)"/>
<path d="M0 0 C2.48445626 2.23973466 2.9539508 3.59049105 3.328125 6.91796875 C2.89351285 25.10648715 2.89351285 25.10648715 0 28 C-2.4375 27.1875 -2.4375 27.1875 -5 25 C-5.76562117 21.34442851 -5.93037367 17.72817347 -6 14 C-7.98 14.33 -9.96 14.66 -12 15 C-14.44140066 12.45687431 -14.99243527 11.06051786 -15.4375 7.5 C-15 4 -15 4 -13.6875 1.5625 C-9.46387776 -0.89309433 -4.75514188 -0.98732717 0 0 Z " fill="#D1927F" transform="translate(110,0)"/>
<path d="M0 0 C2.6875 0.875 2.6875 0.875 5 2 C4.94199219 3.258125 4.88398437 4.51625 4.82421875 5.8125 C4.52107024 15.49804749 4.85350957 23.84451041 8.30932617 32.97265625 C9.73492396 36.74886185 10.02510609 37.89957562 9 42 C4.38 42 -0.24 42 -5 42 C-3.92337258 39.30843145 -2.83924096 36.61953693 -1.7109375 33.94921875 C0.85244847 27.69065945 2.66447576 22.77765278 2 16 C-0.31 15.34 -2.62 14.68 -5 14 C-4.7451971 12.03951648 -4.47063056 10.08159327 -4.1875 8.125 C-4.03667969 7.03445312 -3.88585938 5.94390625 -3.73046875 4.8203125 C-3 2 -3 2 0 0 Z " fill="#BED8FC" transform="translate(61,59)"/>
<path d="M0 0 C-4.20367903 5.18453747 -8.53353512 6.67445992 -15 8 C-19.19859973 8.36808483 -23.35827639 8.35184634 -27.5703125 8.29296875 C-28.73255341 8.28872391 -29.89479431 8.28447906 -31.09225464 8.28010559 C-34.77008153 8.26343926 -38.44734136 8.22580894 -42.125 8.1875 C-44.63280453 8.17243762 -47.14061774 8.15875195 -49.6484375 8.14648438 C-55.7658154 8.11357526 -61.88286717 8.06349716 -68 8 C-68.33 6.68 -68.66 5.36 -69 4 C-68.35599747 3.99413376 -67.71199493 3.98826752 -67.04847717 3.98222351 C-60.31548292 3.91804255 -53.58295577 3.83355993 -46.8503418 3.73754883 C-44.34129006 3.70439668 -41.83216548 3.67633486 -39.32299805 3.65356445 C-35.70590319 3.6198403 -32.08946998 3.56751373 -28.47265625 3.51171875 C-26.80336815 3.50213387 -26.80336815 3.50213387 -25.10035706 3.49235535 C-19.25992357 3.38333584 -14.36893827 2.84455319 -8.92698669 0.65657043 C-5.88429024 -0.38014899 -3.18425788 -0.2032505 0 0 Z " fill="#C5BDC5" transform="translate(115,115)"/>
<path d="M0 0 C0.66 0 1.32 0 2 0 C2 1.65 2 3.3 2 5 C4.31 5.33 6.62 5.66 9 6 C9.33 4.02 9.66 2.04 10 0 C13 1 13 1 14.16796875 2.75 C16.65092372 8.22962475 17.99061705 12.97471749 17 19 C15.625 22.0625 15.625 22.0625 14 24 C13.34 24 12.68 24 12 24 C11.80083984 22.95199219 11.80083984 22.95199219 11.59765625 21.8828125 C11.42105469 20.97273438 11.24445313 20.06265625 11.0625 19.125 C10.88847656 18.22007813 10.71445313 17.31515625 10.53515625 16.3828125 C10.10036299 14.00043683 10.10036299 14.00043683 9 12 C3.48566334 9.86946084 -1.72539714 8.85313087 -7.625 8.8125 C-8.56601562 8.79832031 -9.50703125 8.78414062 -10.4765625 8.76953125 C-13.24704023 8.82039293 -13.24704023 8.82039293 -16 11 C-18.33199388 11.07905064 -20.66832622 11.08798769 -23 11 C-23 10.01 -23 9.02 -23 8 C-21.58521865 7.35004703 -20.16808513 6.70521278 -18.75 6.0625 C-17.56664062 5.52302734 -17.56664062 5.52302734 -16.359375 4.97265625 C-12.7908785 3.50153766 -10.81758845 2.81263598 -7 3.6875 C-6.01 3.790625 -5.02 3.89375 -4 4 C-1.72855926 2.14567913 -1.72855926 2.14567913 0 0 Z " fill="#A75E4F" transform="translate(56,9)"/>
<path d="M0 0 C0.99 0.66 1.98 1.32 3 2 C4.010625 2.28875 5.02125 2.5775 6.0625 2.875 C9 4 9 4 10.375 5.75 C11.15681638 8.56453896 11.13210983 11.09358367 11 14 C9.30729167 12.99088542 7.61458333 11.98177083 5.921875 10.97265625 C-0.19303258 7.87791644 -8.14327251 8.08360557 -14.6796875 9.63671875 C-16.82240705 10.35681302 -18.90894751 11.14315684 -21 12 C-21.99 12.33 -22.98 12.66 -24 13 C-24.21219778 9.88776587 -24.31552396 7.64960815 -22.9375 4.8125 C-16.52386427 -1.18735278 -8.33464514 -0.8062408 0 0 Z " fill="#E8AC9C" transform="translate(57,17)"/>
<path d="M0 0 C0.33 0.66 0.66 1.32 1 2 C2.175625 2.309375 2.175625 2.309375 3.375 2.625 C6.66742586 4.34960402 7.26760159 6.18781747 8.375 9.6484375 C9.99798532 15.75491977 11.33468369 21.64100995 11 28 C9.109375 27.80078125 9.109375 27.80078125 7 27 C5.953125 24.85546875 5.953125 24.85546875 5.25 22.1875 C5.00765625 21.31480469 4.7653125 20.44210938 4.515625 19.54296875 C4 17 4 17 4 13 C3.34 13 2.68 13 2 13 C1.896875 14.155 1.79375 15.31 1.6875 16.5 C1.13964887 21.01171519 -0.2774879 24.80605749 -2 29 C-3.32 29 -4.64 29 -6 29 C-5.33425862 22.51093459 -3.99578944 16.32918678 -2.4375 10 C-2.20353516 9.03449219 -1.96957031 8.06898437 -1.72851562 7.07421875 C-1.15626866 4.71515983 -0.58002171 2.35715708 0 0 Z " fill="#E1DDE0" transform="translate(86,18)"/>
<path d="M0 0 C20.46 0 40.92 0 62 0 C57.97643713 4.02356287 52.7699153 4.1250066 47.34008789 4.22705078 C45.134252 4.22673659 42.92839902 4.21558433 40.72265625 4.1953125 C39.5561705 4.1924826 38.38968475 4.18965271 37.18785095 4.18673706 C33.47929424 4.17558388 29.77098315 4.15048786 26.0625 4.125 C23.54101912 4.11496393 21.01953445 4.10583918 18.49804688 4.09765625 C12.3319481 4.07566044 6.16599161 4.04223118 0 4 C0 2.68 0 1.36 0 0 Z " fill="#DEDADF" transform="translate(46,115)"/>
<path d="M0 0 C0 1.98 0 3.96 0 6 C-0.69561035 6.01981934 -1.3912207 6.03963867 -2.10791016 6.06005859 C-5.28063321 6.15572124 -8.45273487 6.26523304 -11.625 6.375 C-13.26662109 6.42140625 -13.26662109 6.42140625 -14.94140625 6.46875 C-20.28856459 6.66319212 -25.01073016 6.84673618 -30 9 C-30.25 6.1875 -30.25 6.1875 -30 3 C-23.74252385 -4.30038884 -7.94720997 -3.53209332 0 0 Z " fill="#BFD7F9" transform="translate(63,27)"/>
<path d="M0 0 C1.58361328 0.74830078 1.58361328 0.74830078 3.19921875 1.51171875 C4.26785156 2.00285156 5.33648437 2.49398437 6.4375 3 C7.24574219 3.39574219 8.05398437 3.79148437 8.88671875 4.19921875 C4.18889459 10.13331242 -1.09978021 14.62372883 -7.11328125 19.19921875 C-9.67083272 15.36289154 -10.70946234 11.78660154 -11.11328125 7.19921875 C-9.89201086 3.89460476 -8.61587575 2.60041261 -5.88671875 0.421875 C-3.11328125 -0.80078125 -3.11328125 -0.80078125 0 0 Z " fill="#EAAD9C" transform="translate(83.11328125,54.80078125)"/>
<path d="M0 0 C0.99 0.33 1.98 0.66 3 1 C3.33 4.63 3.66 8.26 4 12 C10.435 14.97 10.435 14.97 17 18 C17 19.32 17 20.64 17 22 C12.12092308 22.36379082 9.73171809 21.60804758 5.75 18.8125 C2.12294678 16.36646274 -1.4422876 14.16939844 -5.375 12.25 C-6.58929688 11.65638672 -6.58929688 11.65638672 -7.828125 11.05078125 C-8.54484375 10.70402344 -9.2615625 10.35726563 -10 10 C-13.125 8.4375 -13.125 8.4375 -15 7 C-15 5.68 -15 4.36 -15 3 C-9.71862571 3.51525603 -6.42778844 5.25477117 -2 8 C-1.855625 6.865625 -1.71125 5.73125 -1.5625 4.5625 C-1 1 -1 1 0 0 Z " fill="#FDD067" transform="translate(102,13)"/>
<path d="M0 0 C0.99420906 3.29625316 1.1025611 6.24918922 1.0625 9.68359375 C1.05476563 10.77607422 1.04703125 11.86855469 1.0390625 12.99414062 C1.01306514 15.28580779 0.98702363 17.57747446 0.9609375 19.86914062 C0.95320313 20.96291016 0.94546875 22.05667969 0.9375 23.18359375 C0.92589844 24.17931396 0.91429687 25.17503418 0.90234375 26.20092773 C0.99696608 28.91304013 1.38725275 31.36114607 2 34 C-2.75 33.25 -2.75 33.25 -5 31 C-5.72729051 24.93924575 -3.96053215 21.08841463 -1 16 C-1.61875 15.731875 -2.2375 15.46375 -2.875 15.1875 C-5 14 -5 14 -7 11 C-6.625 7.3125 -6.625 7.3125 -6 4 C-4.7934375 3.566875 -4.7934375 3.566875 -3.5625 3.125 C-0.8673532 2.26737432 -0.8673532 2.26737432 0 0 Z " fill="#D09380" transform="translate(32,30)"/>
<path d="M0 0 C0.83265381 0.00523682 1.66530762 0.01047363 2.52319336 0.01586914 C3.42231445 0.0190918 4.32143555 0.02231445 5.24780273 0.02563477 C6.66609375 0.03820313 6.66609375 0.03820313 8.11303711 0.05102539 C9.06243164 0.05553711 10.01182617 0.06004883 10.98999023 0.06469727 C13.34356776 0.07652429 15.69702188 0.09300514 18.05053711 0.11352539 C18.38053711 1.76352539 18.71053711 3.41352539 19.05053711 5.11352539 C14.27269925 8.90284508 10.1049598 9.74181454 4.05053711 9.11352539 C0.61303711 7.92602539 0.61303711 7.92602539 -1.94946289 6.11352539 C-2.88696289 3.48852539 -2.88696289 3.48852539 -2.94946289 1.11352539 C-1.94946289 0.11352539 -1.94946289 0.11352539 0 0 Z " fill="#FDCD62" transform="translate(108.949462890625,60.886474609375)"/>
<path d="M0 0 C7.09434233 -0.09733092 13.98194143 -0.10087193 21 1 C20.875 2.8125 20.875 2.8125 20 5 C14.60173644 9.08517242 8.43563964 8.28116872 2 8 C2 7.34 2 6.68 2 6 C1.01 5.67 0.02 5.34 -1 5 C-0.67 3.35 -0.34 1.7 0 0 Z " fill="#EBB148" transform="translate(79,46)"/>
<path d="M0 0 C2.6875 0.875 2.6875 0.875 5 2 C5.18451025 12.55808656 5.18451025 12.55808656 4 17 C3.01 16.34 2.02 15.68 1 15 C-0.9896995 14.60986284 -2.99019869 14.26797351 -5 14 C-4.7451971 12.03951648 -4.47063056 10.08159327 -4.1875 8.125 C-4.03667969 7.03445312 -3.88585938 5.94390625 -3.73046875 4.8203125 C-3 2 -3 2 0 0 Z " fill="#DFDADE" transform="translate(61,59)"/>
<path d="M0 0 C0.33 0.33 0.66 0.66 1 1 C0.78634713 4.77453403 0.4849283 7.29954802 -1.6875 10.4375 C-4.64551756 12.43616051 -6.49920639 12.38897707 -10 12 C-11 11 -11 11 -11.3125 7.6875 C-11 4 -11 4 -9.4375 1.5625 C-6.15684085 -0.54048663 -3.82011276 -0.360388 0 0 Z " fill="#EAAD9D" transform="translate(106,0)"/>
<path d="M0 0 C0.99 0.33 1.98 0.66 3 1 C2.67257813 1.82757813 2.34515625 2.65515625 2.0078125 3.5078125 C0.88970041 7.38220092 0.77456047 10.88832323 0.875 14.875 C0.88853516 15.90753906 0.88853516 15.90753906 0.90234375 16.9609375 C0.92567487 18.64077838 0.96153674 20.32043746 1 22 C-1.48294996 20.71520038 -3.96125909 19.4226131 -6.4375 18.125 C-7.14455078 17.76019531 -7.85160156 17.39539063 -8.58007812 17.01953125 C-13.88671875 14.2265625 -13.88671875 14.2265625 -15 12 C-7.25 12.875 -7.25 12.875 -5 14 C-4.9175 12.989375 -4.835 11.97875 -4.75 10.9375 C-4.15993932 6.62213084 -2.31083998 3.65261803 0 0 Z " fill="#D09586" transform="translate(24,84)"/>
<path d="M0 0 C1.32 0 2.64 0 4 0 C4 8.58 4 17.16 4 26 C2.68 26 1.36 26 0 26 C-1.14943658 23.70112683 -1.12898906 22.37909386 -1.1328125 19.82421875 C-1.13410156 18.99599609 -1.13539062 18.16777344 -1.13671875 17.31445312 C-1.13285156 16.44755859 -1.12898438 15.58066406 -1.125 14.6875 C-1.12886719 13.83220703 -1.13273437 12.97691406 -1.13671875 12.09570312 C-1.13027628 7.93709131 -1.05322505 4.05408054 0 0 Z " fill="#A49BA6" transform="translate(43,102)"/>
<path d="M0 0 C3 1 3 1 4.125 2.625 C5.26170333 5.71033761 5.62420256 8.74308885 6 12 C1.50777202 14.99481865 1.50777202 14.99481865 -1 16 C-3.9375 15.25 -3.9375 15.25 -6 14 C-6 11 -6 11 -4.60546875 9.57421875 C-4.07566406 9.05472656 -3.54585938 8.53523438 -3 8 C-2.01371583 5.96922316 -2.01371583 5.96922316 -1.3125 3.8125 C-1.06113281 3.09707031 -0.80976562 2.38164063 -0.55078125 1.64453125 C-0.36902344 1.10183594 -0.18726562 0.55914062 0 0 Z " fill="#A95F4F" transform="translate(69,46)"/>
<path d="M0 0 C0.85078125 0.00322266 1.7015625 0.00644531 2.578125 0.00976562 C3.46757813 0.01814453 4.35703125 0.02652344 5.2734375 0.03515625 C6.170625 0.03966797 7.0678125 0.04417969 7.9921875 0.04882812 C10.21100398 0.06063034 12.42968768 0.0770947 14.6484375 0.09765625 C12.7734375 4.97265625 12.7734375 4.97265625 11.6484375 6.09765625 C9.98226635 6.13829457 8.31455655 6.14037725 6.6484375 6.09765625 C6.6484375 4.44765625 6.6484375 2.79765625 6.6484375 1.09765625 C5.3284375 1.09765625 4.0084375 1.09765625 2.6484375 1.09765625 C2.6484375 2.74765625 2.6484375 4.39765625 2.6484375 6.09765625 C-1.6415625 5.76765625 -5.9315625 5.43765625 -10.3515625 5.09765625 C-5.21911217 -0.03479408 -5.21911217 -0.03479408 0 0 Z " fill="#DEDCE0" transform="translate(40.3515625,100.90234375)"/>
<path d="M0 0 C2.475 0.99 2.475 0.99 5 2 C5.19294408 6.82360189 4.75747614 10.49646738 3 15 C0.03 15 -2.94 15 -6 15 C-6 14.34 -6 13.68 -6 13 C-3.525 13.495 -3.525 13.495 -1 14 C-1.09539062 13.40832031 -1.19078125 12.81664062 -1.2890625 12.20703125 C-1.94154485 7.55619775 -2.34537279 4.27685626 0 0 Z " fill="#E9AF9C" transform="translate(98,32)"/>
<path d="M0 0 C0.66 0.33 1.32 0.66 2 1 C1.875 3.3125 1.875 3.3125 1 6 C-3.68127454 9.31114541 -7.48077617 9.4450987 -13 9 C-15.5 8 -15.5 8 -17 7 C-17 6.67 -17 6.34 -17 6 C-15.98679687 5.80083984 -15.98679687 5.80083984 -14.953125 5.59765625 C-13.61507812 5.33275391 -13.61507812 5.33275391 -12.25 5.0625 C-11.36828125 4.88847656 -10.4865625 4.71445313 -9.578125 4.53515625 C-7.36764947 4.07631512 -5.18487932 3.56663926 -3 3 C-3 2.34 -3 1.68 -3 1 C-2.01 0.67 -1.02 0.34 0 0 Z " fill="#EBB044" transform="translate(126,61)"/>
<path d="M0 0 C2 2 2 2 2.16015625 4.20703125 C2.12792969 5.06683594 2.09570312 5.92664062 2.0625 6.8125 C1.9852098 10.37300185 2.07515047 13.53181428 3 17 C-1.75 16.25 -1.75 16.25 -4 14 C-4.71085211 7.95775707 -3.20053658 4.90082164 0 0 Z " fill="#B46E5A" transform="translate(31,47)"/>
<path d="M0 0 C2.10388569 -0.05402274 4.20816714 -0.09280256 6.3125 -0.125 C8.07013672 -0.15980469 8.07013672 -0.15980469 9.86328125 -0.1953125 C13 0 13 0 16 2 C12.07173635 4.77675038 9.46875108 5.34512366 4.6875 5.1875 C3.08455078 5.14689453 3.08455078 5.14689453 1.44921875 5.10546875 C0.64097656 5.07066406 -0.16726562 5.03585938 -1 5 C-0.67 3.35 -0.34 1.7 0 0 Z " fill="#FECF63" transform="translate(79,46)"/>
<path d="M0 0 C1.1653125 -0.00257812 2.330625 -0.00515625 3.53125 -0.0078125 C6.5 0.125 6.5 0.125 8.5 1.125 C8.5 2.115 8.5 3.105 8.5 4.125 C2.89 4.125 -2.72 4.125 -8.5 4.125 C-8.5 3.135 -8.5 2.145 -8.5 1.125 C-5.64804778 -0.30097611 -3.17538825 -0.0070252 0 0 Z " fill="#D29483" transform="translate(50.5,46.875)"/>
<path d="M0 0 C2.3125 -0.3125 2.3125 -0.3125 5 0 C8.03616654 3.55964352 8.31924758 6.42411796 8 11 C3.91110799 8.77777608 2.2588343 7.70591174 0.625 3.25 C0.41875 2.1775 0.2125 1.105 0 0 Z " fill="#CD9080" transform="translate(60,20)"/>
<path d="M0 0 C3.63 0.33 7.26 0.66 11 1 C6.69230769 5.92307692 6.69230769 5.92307692 3.1875 6.3125 C2.1046875 6.1578125 2.1046875 6.1578125 1 6 C0.67 4.02 0.34 2.04 0 0 Z " fill="#A0C7F9" transform="translate(24,100)"/>
<path d="M0 0 C0.99 0.33 1.98 0.66 3 1 C3 4.63 3 8.26 3 12 C1.68 11.34 0.36 10.68 -1 10 C-1.02689216 8.52093108 -1.04634621 7.04172517 -1.0625 5.5625 C-1.07410156 4.73878906 -1.08570312 3.91507813 -1.09765625 3.06640625 C-1 1 -1 1 0 0 Z " fill="#E9AE47" transform="translate(102,13)"/>
<path d="M0 0 C1.32 0 2.64 0 4 0 C4 1.65 4 3.3 4 5 C2.68 4.67 1.36 4.34 0 4 C0 2.68 0 1.36 0 0 Z " fill="#D39483" transform="translate(48,38)"/>
</svg>
